PathFileType	4	(X/Y/Z)	OpenSim_Sub08_CSStiffKnee_Gyro.trc
DataRate	CameraRate	NumFrames	NumMarkers	Units	OrigDataRate	OrigDataStartFrame	OrigNumFrames
100	100	34	8	m	100	1321	5282
Frame#	Time	torso_imu_offset_imu	pelvis_imu_offset_imu	tibia_r_imu_offset_imu	femur_r_imu_offset_imu	tibia_l_imu_offset_imu	femur_l_imu_offset_imu	toes_r_imu_offset_imu	toes_l_imu_offset_imu
				X1	Y1	Z1	X2	Y2	Z2	X3	Y3	Z3	X4	Y4	Z4	X5	Y5	Z5	X6	Y6	Z6	X7	Y7	Z7	X8		Y8	Z8	

1321	13.20000000	-0.48970647	-0.40774174	-0.15422573	-0.06339697	-0.26508547	-0.04112882	0.48611668	0.27072991	1.92458572	0.45824035	0.20610669	1.35355460	0.23452319	-0.18354540	0.73758764	0.09783399	-0.29990257	0.30703686	-0.46978950	1.35720949	1.27052044	0.12894093	-0.11650993	-0.00815872
1322	13.21000000	-0.45718273	-0.36565503	-0.15055443	-0.03392848	-0.23903092	-0.09006779	0.45410228	0.27137900	1.95929145	0.31327300	0.25474314	1.32121655	0.21236233	-0.18906631	0.70379902	0.19588755	-0.31685601	0.37154122	-0.51643950	1.35113255	1.23539821	0.10168628	-0.13744234	0.02572226
1323	13.22000000	-0.42556297	-0.33114090	-0.15111717	-0.01386186	-0.22949984	-0.12662928	0.41940457	0.28642621	1.95326722	0.12871590	0.28188826	1.28019531	0.14355086	-0.17406175	0.65320377	0.26947855	-0.28567652	0.37965478	-0.51911726	1.36753770	1.19396497	0.05428181	-0.09649471	0.08809117
1324	13.23000000	-0.39414451	-0.29613064	-0.16349052	-0.00044132	-0.23853935	-0.14799685	0.34868382	0.29466654	1.92256993	-0.07352635	0.29319169	1.23116595	0.11997961	-0.17055569	0.62087478	0.32468561	-0.23592605	0.37465168	-0.52474972	1.35608652	1.14013679	0.04750561	-0.07899321	0.11552644
1325	13.24000000	-0.35117186	-0.28963330	-0.15646589	0.00702777	-0.25498288	-0.15723857	0.23688977	0.30201387	1.90072268	-0.27730639	0.28678909	1.17212814	0.18214683	-0.17642899	0.61404137	0.32492077	-0.21551877	0.41033777	-0.48386710	1.31089933	1.05451426	0.06075064	-0.05728383	0.12397181
1326	13.25000000	-0.31038306	-0.28275679	-0.14995330	0.02566961	-0.26495102	-0.15340526	0.13938848	0.32912548	1.87822974	-0.46141859	0.26958081	1.10891723	0.29232959	-0.16086985	0.61613751	0.26562181	-0.24273686	0.45361388	-0.41561539	1.24731302	0.94802856	0.07060769	-0.06727698	0.11982142
1327	13.26000000	-0.27191603	-0.26339505	-0.14128864	0.05165653	-0.26365518	-0.14058629	0.06497667	0.35035320	1.85085763	-0.59650574	0.23850943	1.07026969	0.39634658	-0.14734336	0.60978822	0.16067012	-0.28430952	0.49631497	-0.42917808	1.16568060	0.82498327	0.07732334	-0.07480388	0.12121124
1328	13.27000000	-0.24554421	-0.27540540	-0.14738700	0.08026027	-0.26325763	-0.13570735	-0.03461992	0.35024645	1.81401001	-0.67836159	0.20549897	1.04396289	0.38909958	-0.12624121	0.61071437	0.06637596	-0.32667930	0.52045998	-0.47173355	1.05691483	0.68926549	0.08988070	-0.08642526	0.13672326
1329	13.28000000	-0.21483962	-0.29362823	-0.14474399	0.10448152	-0.27079469	-0.12847271	-0.11825813	0.33453386	1.76335158	-0.70945904	0.17858369	1.00004575	0.27960871	-0.10209868	0.62891919	-0.03427547	-0.34197003	0.51342724	-0.46892458	0.94967734	0.55351203	0.05152672	-0.06981019	0.16724524
1330	13.29000000	-0.17751956	-0.29194591	-0.11947303	0.13034941	-0.28094188	-0.11719383	-0.16996680	0.31837311	1.72318966	-0.70478762	0.14439291	0.95758399	0.13351356	-0.09755283	0.63931863	-0.15754294	-0.34201822	0.49709480	-0.50594325	0.89509342	0.44447314	0.01110753	-0.05242310	0.18690891
1331	13.30000000	-0.15261566	-0.27781498	-0.09914227	0.16305809	-0.27201603	-0.10925834	-0.20589179	0.29284620	1.67278365	-0.68562050	0.10583730	0.91524252	0.06321155	-0.10474664	0.63926342	-0.26290101	-0.36869472	0.48876356	-0.57350381	0.87029196	0.38282827	0.05045404	-0.10161127	0.19961974
1332	13.31000000	-0.11961182	-0.26316265	-0.06860453	0.19261924	-0.23986561	-0.10429995	-0.24034893	0.25204884	1.60224588	-0.62737090	0.06773451	0.87378128	0.05031088	-0.08139947	0.65358508	-0.33475026	-0.39449313	0.48604807	-0.66190425	0.84676485	0.36424738	-0.01436555	-0.10376555	0.24956714
1333	13.32000000	-0.08280893	-0.24266704	-0.04386225	0.21555732	-0.19751040	-0.09711000	-0.31222313	0.20637270	1.53593197	-0.53568301	0.02323679	0.83728960	0.05578831	-0.05444658	0.67495126	-0.34673606	-0.41829649	0.50124416	-0.72551005	0.88920325	0.38820507	-0.07092707	-0.08296202	0.31192819
1334	13.33000000	-0.04811883	-0.21520883	-0.03856483	0.22405221	-0.16390191	-0.08175105	-0.34770254	0.16807673	1.46337600	-0.42900617	-0.00429193	0.81319659	0.04823050	-0.05224406	0.68699588	-0.32002198	-0.42079854	0.54292418	-0.68834631	0.98382929	0.43920659	-0.07068592	-0.05463225	0.36751209
1335	13.34000000	-0.01854787	-0.18681578	-0.02270154	0.20528458	-0.13864658	-0.07571844	-0.28146495	0.14566037	1.38512891	-0.32825294	-0.02531544	0.78661569	-0.00575930	-0.05453179	0.67838173	-0.29526088	-0.40986372	0.55726886	-0.60405797	0.99864736	0.48245682	-0.12732888	-0.09115559	0.36811321
1336	13.35000000	0.00920242	-0.17166606	0.01747961	0.16544673	-0.11226340	-0.06269132	-0.22747364	0.11191804	1.31366773	-0.22075158	-0.05380780	0.73993153	0.01817569	-0.07214878	0.66756545	-0.24369039	-0.41473019	0.50514389	-0.55020033	0.91382889	0.51603476	-0.09639542	-0.09166812	0.33155346
1337	13.36000000	0.03237067	-0.17026337	0.04035611	0.12536261	-0.08413181	-0.04794166	-0.19678286	0.09666122	1.26050653	-0.10049399	-0.06305922	0.68572217	0.14224365	-0.06481248	0.72338733	-0.16504269	-0.40402338	0.49310433	-0.52286297	0.82081909	0.55919913	-0.06805381	-0.06957741	0.27895534
1338	13.37000000	0.04771902	-0.16041785	0.05317622	0.10407532	-0.06324010	-0.03487431	-0.06659693	0.10382682	1.20439790	0.00083968	-0.05487993	0.61099615	0.24690470	-0.03728307	0.78993409	-0.06324598	-0.35118505	0.51405667	-0.45195443	0.76665538	0.61283160	-0.08315345	-0.07700497	0.21172217
1339	13.38000000	0.06038474	-0.14921825	0.06968115	0.10795799	-0.05078329	-0.01683461	0.11276996	0.08543439	1.13188573	0.09810891	-0.03787404	0.53779186	0.28161543	-0.03222424	0.79539257	0.05792347	-0.28720453	0.51830925	-0.35653181	0.74538302	0.67144474	-0.05318289	-0.09240720	0.18285224
1340	13.39000000	0.06862213	-0.13354265	0.07948767	0.13356849	-0.04007263	0.00715150	0.25296684	0.04597400	1.05355006	0.20045531	-0.03166103	0.46600752	0.24503397	-0.03394283	0.76377450	0.15510584	-0.24291269	0.54455584	-0.23531571	0.71686928	0.71897283	-0.03746160	-0.09431986	0.17178013
1341	13.40000000	0.07619311	-0.11699014	0.08033427	0.16359293	-0.03212682	0.03296462	0.37444495	0.02667822	0.97213992	0.30013760	-0.04476720	0.39338967	0.17197508	-0.04573770	0.76457430	0.23381754	-0.21050021	0.59525990	-0.12441323	0.64584160	0.75885095	-0.02810308	-0.11109173	0.14807338
1342	13.41000000	0.09185167	-0.09963892	0.08241073	0.19763929	-0.01267945	0.04914100	0.49255463	0.03229248	0.90562939	0.38154890	-0.06754930	0.32110393	0.18511410	-0.03651061	0.82201505	0.31722313	-0.18266234	0.65697982	-0.08323387	0.56972780	0.80847374	-0.00858284	-0.11130010	0.15155585
1343	13.42000000	0.09909996	-0.07965780	0.08950756	0.24377304	0.01830276	0.06493148	0.57005029	0.02803534	0.83555678	0.45252265	-0.09234223	0.23771174	0.22598314	-0.02173186	0.85784626	0.38811194	-0.15118506	0.63742631	-0.08430527	0.50388157	0.86672195	-0.01473069	-0.12038261	0.16196385
1344	13.43000000	0.10675825	-0.05656850	0.09565567	0.30080241	0.04246153	0.08180857	0.61907283	0.01220703	0.75235187	0.51768948	-0.12007278	0.15438660	0.26081659	-0.04282147	0.84693102	0.43013962	-0.10816353	0.59690843	-0.05061891	0.47434542	0.91722922	-0.00609427	-0.15829233	0.17413387
1345	13.44000000	0.11773881	-0.03348657	0.10331925	0.37220619	0.07179226	0.09874949	0.70450177	-0.00025809	0.65746150	0.56736519	-0.15443002	0.07148797	0.26930787	-0.04355953	0.85654128	0.45592409	-0.07795931	0.61025509	0.04413343	0.45296476	0.95149943	-0.01933972	-0.18896996	0.19176356
1346	13.45000000	0.11780403	-0.00895824	0.10272409	0.43962783	0.10449344	0.11225910	0.78616570	-0.01046128	0.56229512	0.62728713	-0.16458140	-0.01254474	0.22142442	-0.03219879	0.88980273	0.47261240	-0.06480536	0.62360072	0.12759420	0.37956442	0.96087355	0.00913504	-0.19164396	0.19840539
1347	13.46000000	0.12092595	0.02144776	0.10213127	0.49915461	0.13633636	0.12938812	0.81956354	-0.02570866	0.49470003	0.68443703	-0.15463239	-0.10949688	0.20920994	-0.04703829	0.91188454	0.47490543	-0.05665839	0.63006701	0.16465251	0.26267445	0.94961388	0.07921556	-0.26215771	0.21635399
1348	13.47000000	0.12884356	0.05109020	0.10291483	0.53737148	0.17927574	0.14465356	0.83959588	-0.03611034	0.42789026	0.70774923	-0.15132718	-0.17995874	0.24655519	-0.03059416	0.90342273	0.47431361	-0.05678109	0.61678634	0.18036012	0.12705728	0.92909818	0.02893859	-0.40062909	0.21931841
1349	13.48000000	0.13383593	0.08131732	0.10079955	0.56719698	0.21741580	0.15584150	0.84602380	-0.05910825	0.33463304	0.73006591	-0.16745126	-0.22830404	0.22988055	0.00594580	0.89087331	0.49644462	-0.05270464	0.63481675	0.16882036	0.02551254	0.90180703	0.04827034	-0.48193482	0.18974575
1350	13.49000000	0.12793659	0.10887002	0.09541062	0.60307397	0.24611194	0.17227306	0.83458680	-0.10506730	0.21167156	0.75638687	-0.21824002	-0.28057134	0.16629598	0.00177245	0.92906867	0.53119528	-0.02033846	0.67729842	0.20005667	-0.02765605	0.85109247	0.10328793	-0.55847962	0.15206185
1351	13.50000000	0.12726534	0.14067533	0.09059312	0.60773715	0.25854145	0.17331827	0.83416200	-0.15425230	0.06379059	0.72995548	-0.28435527	-0.32126284	0.15380890	0.00252189	0.98597138	0.53898527	0.02251961	0.71241132	0.30189658	-0.10602432	0.75120298	0.16477843	-0.62975433	0.08530521
1352	13.51000000	0.12838729	0.17723202	0.08522679	0.57752030	0.25861939	0.16268422	0.81578871	-0.20640598	-0.08961519	0.62938295	-0.34714177	-0.35621330	0.18682166	0.01829437	1.03065706	0.52381575	0.05020625	0.74176481	0.29330713	-0.29029329	0.62863238	0.25135648	-0.72662105	0.03796180
1353	13.52000000	0.12825699	0.21366732	0.08200284	0.52905579	0.23365000	0.15276533	0.75349868	-0.26327327	-0.22000673	0.47492848	-0.39591954	-0.38334271	0.28708097	0.02359902	1.04893388	0.50163822	0.06670000	0.76195418	0.30467726	-0.41321940	0.48999777	0.27799979	-0.82518411	0.02446047
1354	13.53000000	0.12603949	0.25171907	0.07650336	0.46836655	0.19756275	0.13545358	0.68426321	-0.34482070	-0.34583203	0.30223050	-0.42027557	-0.40673398	0.36327548	0.03490816	1.08455803	0.48079637	0.08324999	0.77209721	0.04782420	-0.90133010	0.34283216	0.30855061	-0.95874978	0.01030333
